<?xml version="1.0" encoding="iso-8859-1"?>
<!-- Uploaded to: SVG Repo, www.svgrepo.com, Generator: SVG Repo Mixer Tools -->
<svg fill="#000000" height="800px" width="800px" version="1.1" id="Layer_1" xmlns="http://www.w3.org/2000/svg" xmlns:xlink="http://www.w3.org/1999/xlink" 
	 viewBox="0 0 512 512" xml:space="preserve">
<g>
	<g>
		<path d="M378.435,244.87c-18.097,0-35.361,3.625-51.115,10.175l4.842-43.567h18.448c9.22,0,16.696-7.475,16.696-16.696
			c0-9.22-7.475-16.696-16.696-16.696H329.25l-6.754-20.262c-15.932-47.797-60.49-79.912-110.871-79.912h-11.277V50.087
			c0-9.206,7.49-16.696,16.696-16.696h66.783c9.22,0,16.696-7.475,16.696-16.696S293.047,0,283.826,0h-66.783
			c-27.618,0-50.087,22.469-50.087,50.087v27.826h-11.277c-50.384,0-94.939,32.115-110.872,79.912l-6.754,20.262H16.696
			C7.475,178.087,0,185.562,0,194.783c0,9.22,7.475,16.696,16.696,16.696h18.448c1.366,12.292,30.064,270.582,31.741,285.669
			C67.824,505.603,74.971,512,83.478,512h200.348c8.508,0,15.654-6.397,16.593-14.852l1.066-9.601
			C323.253,502.942,349.805,512,378.435,512C452.083,512,512,452.083,512,378.435S452.083,244.87,378.435,244.87z M76.485,168.383
			c11.38-34.141,43.206-57.079,79.194-57.079h55.946c35.988,0,67.813,22.938,79.193,57.079l3.234,9.704H73.25L76.485,168.383z
			 M68.74,211.478h229.823l-7.318,65.855c-0.354,0.305-0.701,0.618-1.052,0.927H76.161L68.74,211.478z M79.871,311.652H262.8
			c-11.398,19.657-17.93,42.47-17.93,66.783H87.292L79.871,311.652z M268.882,478.609H98.422l-7.421-66.783h158.094
			c4.363,16.892,11.961,32.495,22.084,46.116L268.882,478.609z M378.435,478.609c-55.236,0-100.174-44.938-100.174-100.174
			s44.938-100.174,100.174-100.174s100.174,44.938,100.174,100.174S433.671,478.609,378.435,478.609z"/>
	</g>
</g>
<g>
	<g>
		<circle cx="384" cy="328.348" r="16.696"/>
	</g>
</g>
<g>
	<g>
		<circle cx="328.348" cy="372.87" r="16.696"/>
	</g>
</g>
<g>
	<g>
		<circle cx="372.87" cy="428.522" r="16.696"/>
	</g>
</g>
<g>
	<g>
		<circle cx="428.522" cy="384" r="16.696"/>
	</g>
</g>
</svg>